<?xml version="1.0" standalone="no"?>
<!DOCTYPE svg PUBLIC "-//W3C//DTD SVG 20010904//EN"
 "http://www.w3.org/TR/2001/REC-SVG-20010904/DTD/svg10.dtd">
<svg version="1.0" xmlns="http://www.w3.org/2000/svg"
 width="1000.000000pt" height="1000.000000pt" viewBox="0 0 1000.000000 1000.000000"
 preserveAspectRatio="xMidYMid meet">
<metadata>
Created by potrace 1.11, written by Peter Selinger 2001-2013
</metadata>
<g transform="translate(0.000000,1000.000000) scale(0.100000,-0.100000)"
fill="#000000" stroke="none">
<path d="M1360 5000 l0 -1400 520 0 520 0 2 661 3 662 379 -662 379 -661 341
0 341 0 370 646 c204 356 375 654 382 663 10 13 12 -123 13 -646 l0 -663 520
0 520 0 0 1400 0 1400 -642 0 -643 -1 -427 -792 c-234 -436 -430 -792 -435
-791 -4 1 -200 356 -434 790 l-426 789 -642 3 -641 2 0 -1400z"/>
<path d="M5800 5000 l0 -1400 1440 0 1440 0 0 440 0 440 -920 0 -920 0 0 960
0 960 -520 0 -520 0 0 -1400z"/>
</g>
</svg>
