<svg xmlns="http://www.w3.org/2000/svg" width="144" height="144" fill="none" viewBox="0 0 144 144"><path fill="url(#paint0_linear_5_10)" d="M22.1776 138.77C27.8554 138.738 44.814 146.478 48.8077 142.809C52.8023 139.14 43.5073 124.362 43.4842 119.2L43.2165 70.6977C43.1373 67.227 43.8176 63.7773 45.219 60.5486C46.6205 57.3198 48.7139 54.3772 51.3782 51.891C54.043 49.4048 57.2246 47.4257 60.7384 46.0687C64.2522 44.7117 68.2007 75.3132 72.0182 75.2957C75.8357 75.2783 79.4462 44.6424 82.9747 45.9672C86.5033 47.2921 89.7068 49.2421 92.3984 51.7038C95.0901 54.1656 97.2163 57.0889 98.6531 60.3048C100.09 63.5206 100.809 66.9639 100.768 70.4351L101.035 118.937C101.064 124.101 95.071 138.947 99.1071 142.58C103.143 146.213 116.878 138.336 122.557 138.31C128.237 138.284 133.672 136.208 137.668 132.538C141.664 128.868 143.893 123.905 143.864 118.742L143.568 65.1043C143.521 56.5549 141.622 48.0971 137.98 40.2146C134.338 32.3322 135.266 9.48484 128.584 3.46915C121.901 -2.54571 107.739 8.38949 99.0336 5.15708C90.3281 1.92547 81.0077 0.283836 71.6044 0.326734C62.2012 0.369633 52.8992 2.09623 44.2297 5.4071C35.5603 8.71878 19.5396 -0.525625 12.9241 5.54992C6.30781 11.6263 9.227 32.903 5.67276 40.8182C2.1176 48.7335 0.312091 57.2082 0.359271 65.7576L0.655274 119.395C0.690035 124.557 2.97483 129.497 7.00971 133.129C11.0446 136.761 16.4998 138.79 22.1776 138.77ZM9.72818 65.7189C9.64536 50.7111 16.1233 36.2887 27.736 25.6238C39.3486 14.9588 55.1456 8.9245 71.6515 8.8492C88.1574 8.7739 104.02 14.6638 115.75 25.2222C127.48 35.7807 134.116 50.1432 134.199 65.1511L134.495 118.784C134.484 121.673 133.218 124.44 130.973 126.484C128.728 128.528 125.686 129.683 122.51 129.697C119.333 129.712 116.278 128.585 114.011 126.561C111.744 124.538 110.448 121.782 110.404 118.894L110.137 70.3924C110.086 61.1942 106.018 52.3909 98.829 45.9194C91.6396 39.4478 82.9795 23.6498 72.8629 23.696C62.7464 23.7421 52.0018 39.6287 44.8841 46.1655C37.7674 52.7022 33.7968 61.5422 33.8476 70.7404L34.1153 119.242C34.1313 122.147 32.8781 124.938 30.6301 127.003C28.3821 129.067 25.325 130.235 22.1306 130.249C18.9353 130.264 15.8654 129.124 13.5948 127.08C11.3251 125.037 10.0402 122.257 10.0242 119.352L9.72818 65.7189Z"/><defs><linearGradient id="paint0_linear_5_10" x1="145.133" x2="1.925" y1="71.109" y2="71.899" gradientUnits="userSpaceOnUse"><stop stop-color="#0D0DD0"/><stop offset="1" stop-color="#0D0B0C"/></linearGradient></defs></svg>